<svg width="30" height="22" viewBox="0 0 30 22" fill="none" xmlns="http://www.w3.org/2000/svg">
    <mask id="mask0_226_677" style="mask-type:alpha" maskUnits="userSpaceOnUse" x="0" y="0" width="30" height="22">
        <path fill-rule="evenodd" clip-rule="evenodd" d="M30 22H0V0L30 0V22Z" fill="white"/>
    </mask>
    <g mask="url(#mask0_226_677)">
        <path fill-rule="evenodd" clip-rule="evenodd" d="M7.84227 3.16958C7.31455 3.16958 6.88773 2.75725 6.88773 2.24743C6.88773 1.7376 7.31455 1.32527 7.84227 1.32527C8.37 1.32527 8.79682 1.7376 8.79682 2.24743C8.79682 2.75725 8.37 3.16958 7.84227 3.16958ZM5.25136 3.16958C4.72364 3.16958 4.29682 2.75725 4.29682 2.24743C4.29682 1.7376 4.72364 1.32527 5.25136 1.32527C5.77909 1.32527 6.20591 1.7376 6.20591 2.24743C6.20591 2.75725 5.77909 3.16958 5.25136 3.16958ZM2.52409 3.16958C1.99636 3.16958 1.56955 2.75725 1.56955 2.24743C1.56955 1.7376 1.99636 1.32527 2.52409 1.32527C3.05182 1.32527 3.47864 1.7376 3.47864 2.24743C3.47864 2.75725 3.05182 3.16958 2.52409 3.16958ZM0 0V22H17.1818V20.6826H1.36364V4.74252H28.6364V10.1437H30V0H0Z" fill="#3697F2"/>
    </g>
    <path fill-rule="evenodd" clip-rule="evenodd" d="M22.6481 17.3056V16.5926C22.6481 16.2348 22.3578 15.9444 22 15.9444C21.6422 15.9444 21.3519 16.2348 21.3519 16.5926V17.3056C20.04 17.0385 19.0146 15.9781 18.802 14.6481H19.4074C19.7652 14.6481 20.0556 14.3578 20.0556 14C20.0556 13.6422 19.7652 13.3519 19.4074 13.3519H18.8539C19.152 12.145 20.1269 11.2039 21.3519 10.9537V11.4074C21.3519 11.7652 21.6422 12.0556 22 12.0556C22.3578 12.0556 22.6481 11.7652 22.6481 11.4074V10.9537C23.8731 11.2039 24.848 12.145 25.1461 13.3519H24.5926C24.2348 13.3519 23.9444 13.6422 23.9444 14C23.9444 14.3578 24.2348 14.6481 24.5926 14.6481H25.198C24.9854 15.9781 23.96 17.0385 22.6481 17.3056ZM28.3519 13.3519H26.4696C26.1378 11.4256 24.5913 9.91667 22.6481 9.63796V7.64815C22.6481 7.29037 22.3578 7 22 7C21.6422 7 21.3519 7.29037 21.3519 7.64815V9.63796C19.4087 9.91667 17.8622 11.4256 17.5304 13.3519H15.6481C15.2904 13.3519 15 13.6422 15 14C15 14.3578 15.2904 14.6481 15.6481 14.6481H17.4928C17.7248 16.6963 19.3219 18.3309 21.3519 18.6213V20.3519C21.3519 20.7096 21.6422 21 22 21C22.3578 21 22.6481 20.7096 22.6481 20.3519V18.6213C24.6781 18.3309 26.2752 16.6963 26.5072 14.6481H28.3519C28.7096 14.6481 29 14.3578 29 14C29 13.6422 28.7096 13.3519 28.3519 13.3519Z" fill="#3697F2"/>
</svg>
