<?xml version="1.0" encoding="UTF-8"?>
<svg width="119px" height="34px" viewBox="0 0 119 34" version="1.1" xmlns="http://www.w3.org/2000/svg" xmlns:xlink="http://www.w3.org/1999/xlink">
    <!-- Generator: Sketch 46.2 (44496) - http://www.bohemiancoding.com/sketch -->
    <title>Denali Logo</title>
    <desc>Created with Sketch.</desc>
    <defs>
        <linearGradient x1="23.2492547%" y1="42.545104%" x2="63.2901829%" y2="106.794122%" id="linearGradient-1">
            <stop stop-color="#00B1EA" offset="0%"></stop>
            <stop stop-color="#76C5ED" offset="100%"></stop>
        </linearGradient>
        <linearGradient x1="19.527579%" y1="17.2785301%" x2="83.3452975%" y2="86.0505063%" id="linearGradient-2">
            <stop stop-color="#0034E8" offset="0%"></stop>
            <stop stop-color="#3570F4" offset="100%"></stop>
        </linearGradient>
        <linearGradient x1="20.5231701%" y1="23.0443424%" x2="64.9593845%" y2="114.631022%" id="linearGradient-3">
            <stop stop-color="#0083EF" offset="0%"></stop>
            <stop stop-color="#36B7F2" offset="100%"></stop>
        </linearGradient>
    </defs>
    <g id="Navbar" stroke="none" stroke-width="1" fill="none" fill-rule="evenodd">
        <g id="Navbar-1" transform="translate(-30.000000, -12.000000)" fill-rule="nonzero">
            <g id="Denali-Logo" transform="translate(30.000000, 12.000000)">
                <path d="M40.9648618,20.9510885 C40.9648618,16.0760831 43.4740321,13.0112879 47.3344179,13.0112879 C49.5746335,13.0112879 51.3091497,14.1273694 52.0838037,15.8506121 L52.1691606,15.8506121 L52.1691606,8.33115388 C52.1678784,7.31500406 52.5703131,6.33996381 53.2879334,5.62053129 C54.0055538,4.90109877 54.9795759,4.49620626 55.9957258,4.49492567 L55.9957258,4.49492567 C56.0724624,4.49492447 56.1460329,4.5255178 56.2001426,4.57992976 C56.2542523,4.63434172 56.2844353,4.70808149 56.2840066,4.78481697 L56.2840066,28.4592732 C56.2844353,28.5360087 56.2542523,28.6097485 56.2001426,28.6641604 C56.1460329,28.7185724 56.0724624,28.7491657 55.9957258,28.7491645 L52.5089776,28.7491645 C52.4322409,28.7491657 52.3586705,28.7185724 52.3045608,28.6641604 C52.2504511,28.6097485 52.2202681,28.5360087 52.2206968,28.4592732 L52.2206968,26.0918276 L52.1498345,26.0918276 C51.3880646,27.8005757 49.5987911,28.9311518 47.3183128,28.9311518 C43.4595375,28.9327623 40.9648618,25.8534725 40.9648618,20.9510885 Z M45.1779487,20.9655831 C45.1779487,23.8194019 46.5452694,25.5990124 48.687244,25.5990124 C50.8292186,25.5990124 52.1965392,23.7904128 52.1965392,20.9784671 C52.1965392,18.1665215 50.814724,16.3450378 48.687244,16.3450378 C46.5597639,16.3450378 45.1795592,18.1391429 45.1795592,20.9655831 L45.1779487,20.9655831 Z" id="Shape" fill="#FFFFFF"></path>
                <path d="M72.5308035,24.0029997 C72.6075449,24.0033599 72.6800793,24.0381195 72.7284372,24.0977089 C72.7767951,24.1572983 72.7958779,24.2354347 72.7804321,24.3106066 C72.1893759,27.1483203 69.4499031,29.0181192 65.8037148,29.0181192 C61.0817076,29.0181192 58.1940681,25.9807026 58.1940681,21.0364454 C58.1940681,16.0921882 61.0929811,12.9275415 65.6491061,12.9275415 C70.1166531,12.9275415 72.9640299,15.923085 72.9640299,20.6579762 L72.9640299,21.6758168 C72.9640299,21.7433038 72.9372208,21.8080267 72.8895003,21.8557473 C72.8417797,21.9034678 72.7770568,21.9302769 72.7095698,21.9302769 L62.505396,21.9302769 C62.3648615,21.9302769 62.2509358,22.0442026 62.2509358,22.184737 L62.2509358,22.184737 C62.2509358,24.4313946 63.7003923,25.9420504 65.8729666,25.9420504 C67.3562437,25.9420504 68.5431876,25.2688584 68.9876876,24.1592189 C69.0268468,24.0659372 69.1184353,24.0055143 69.2196006,24.0062207 L72.5308035,24.0029997 Z M62.5746478,19.3695704 L68.7155118,19.3695704 C68.7871206,19.3694406 68.8553602,19.3391442 68.9034837,19.2861164 C68.9516073,19.2330886 68.9751599,19.162238 68.9683615,19.0909527 C68.7912057,17.2147117 67.5027999,16.0068313 65.6877583,16.0068313 C63.9065373,16.0068313 62.5698163,17.2453114 62.3217982,19.0780686 C62.3120347,19.1513426 62.3344127,19.2252611 62.3831778,19.2808163 C62.4319429,19.3363715 62.5023369,19.3681426 62.5762583,19.3679599 L62.5746478,19.3695704 Z" id="Shape" fill="#FFFFFF"></path>
                <path d="M75.1398252,13.2013277 L78.5991947,13.2013277 C78.7397291,13.2013277 78.8536548,13.3152534 78.8536548,13.4557879 L78.8536548,15.9842842 L78.9390117,15.9842842 C79.8264012,14.0210759 81.4046983,12.9742462 83.7866385,12.9742462 C87.2250714,12.9742462 89.1705641,15.1500415 89.1705641,18.7801248 L89.1705641,28.5011464 C89.1705641,28.6416808 89.0566384,28.7556065 88.916104,28.7556065 L85.3150098,28.7556065 C85.2475228,28.7556065 85.1827999,28.7287974 85.1350793,28.6810769 C85.0873588,28.6333563 85.0605497,28.5686334 85.0605497,28.5011464 L85.0605497,19.6433566 C85.0605497,17.5802969 84.0942453,16.4078476 82.1616367,16.4078476 C80.1887653,16.4078476 79.0050425,17.8202625 79.0050425,19.8833222 L79.0050425,28.5011464 C79.0050425,28.6416808 78.8911168,28.7556065 78.7505824,28.7556065 L75.1430462,28.7556065 C75.0755592,28.7556065 75.0108362,28.7287974 74.9631157,28.6810769 C74.9153952,28.6333563 74.888586,28.5686334 74.888586,28.5011464 L74.888586,13.4493459 C74.8920393,13.3125753 75.0030215,13.203016 75.1398252,13.2013277 L75.1398252,13.2013277 Z" id="Shape" fill="#FFFFFF"></path>
                <path d="M90.821334,24.2719544 C90.821334,21.4471247 92.9778032,19.8495016 96.9412615,19.609536 L100.579397,19.384065 C100.713606,19.375554 100.818022,19.2640828 100.817752,19.1296048 L100.817752,18.3372353 C100.817752,16.8394636 99.7886383,16.0197154 98.0976057,16.0197154 C96.6868014,16.0197154 95.6818448,16.7251175 95.4048376,17.7542317 C95.3755879,17.8644922 95.2757251,17.941208 95.161651,17.9410505 L91.8681637,17.9410505 C91.7961011,17.94051 91.7276018,17.9096296 91.6794778,17.8559882 C91.6313539,17.8023468 91.6080603,17.7309104 91.6153141,17.6592117 C91.8810478,14.8440451 94.5142271,12.9243205 98.2634879,12.9243205 C102.251104,12.9243205 104.866568,14.9728857 104.866568,18.0779436 L104.866568,28.5011464 C104.866568,28.6416808 104.752642,28.7556065 104.612107,28.7556065 L101.136633,28.7556065 C101.069146,28.7556065 101.004423,28.7287974 100.956702,28.6810769 C100.908982,28.6333563 100.882173,28.5686334 100.882173,28.5011464 L100.882173,26.3478982 L100.796816,26.3478982 C99.9512995,27.9729 98.0347959,28.9327623 96.04743,28.9327623 C93.0615496,28.9327623 90.821334,27.0516899 90.821334,24.2719544 Z M100.806479,23.0431374 L100.806479,22.171853 C100.80662,22.1014806 100.777612,22.0341919 100.726348,21.9859801 C100.675085,21.9377684 100.606145,21.9129388 100.535914,21.9173928 L97.5516437,22.1251483 C95.831622,22.2378838 94.9168539,22.9159073 94.9168539,24.057757 C94.9168539,25.1996066 95.8831582,25.9227243 97.3825405,25.9227243 C99.2909915,25.9243348 100.812921,24.737391 100.812921,23.0415269 L100.806479,23.0431374 Z" id="Shape" fill="#FFFFFF"></path>
                <path d="M111.232903,4.49492567 L111.232903,4.49492567 C111.309639,4.49492447 111.38321,4.5255178 111.437319,4.57992976 C111.491429,4.63434172 111.521612,4.70808149 111.521183,4.78481697 L111.521183,28.4592732 C111.521612,28.5360087 111.491429,28.6097485 111.437319,28.6641604 C111.38321,28.7185724 111.309639,28.7491657 111.232903,28.7491645 L107.689787,28.7491645 C107.61305,28.7491657 107.53948,28.7185724 107.48537,28.6641604 C107.43126,28.6097485 107.401077,28.5360087 107.401506,28.4592732 L107.401506,8.32793287 C107.401079,7.31150428 107.804554,6.33655974 108.523126,5.61768512 C109.241699,4.8988105 110.216474,4.49492558 111.232903,4.49492567 L111.232903,4.49492567 Z" id="Shape" fill="#FFFFFF"></path>
                <path d="M114.394328,14.0629491 L118.001865,14.0629491 C118.142399,14.0629491 118.256325,14.1768748 118.256325,14.3174092 L118.256325,24.8791156 C118.256325,27.0138162 116.525808,28.744333 114.391107,28.744333 L114.391107,28.744333 C114.250573,28.744333 114.136647,28.6304073 114.136647,28.4898728 L114.136647,14.3174092 C114.136642,14.2493604 114.163893,14.1841445 114.212312,14.1363303 C114.260731,14.0885161 114.326285,14.0620877 114.394328,14.0629491 L114.394328,14.0629491 Z" id="Shape" fill="#FFFFFF"></path>
                <path d="M23.9788421,33.4808347 L38.2833673,33.4598981 C38.5984925,33.4598375 38.8894935,33.2911547 39.0461617,33.0177338 C39.2028299,32.7443129 39.2012103,32.4079606 39.0419162,32.1360612 L31.9556844,20.0008892 C31.7978467,19.7317107 31.5091769,19.566341 31.1971355,19.566341 C30.8850941,19.566341 30.5964242,19.7317107 30.4385866,20.0008892 L23.2267352,32.1569978 C23.0680102,32.4279056 23.0657768,32.7628911 23.2208754,33.0358913 C23.3759741,33.3088915 23.664869,33.4784792 23.9788421,33.4808347 L23.9788421,33.4808347 Z" id="Shape" fill="url(#linearGradient-1)"></path>
                <path d="M26.2448258,23.7082769 L29.9747605,17.4272987 C30.1368467,17.1519759 30.1368467,16.8104005 29.9747605,16.5350777 L20.5677878,0.442889487 C20.4099501,0.173710948 20.1212803,0.00834128332 19.8092389,0.00834128332 C19.4971975,0.00834128332 19.2085276,0.173710948 19.05069,0.442889487 L15.2740505,6.81405608 C15.1106971,7.09018661 15.1106971,7.43336756 15.2740505,7.70949809 L24.727728,23.7179399 C24.8872732,23.9861225 25.1769989,24.1496616 25.4890448,24.147674 C25.8010907,24.1456865 26.0887097,23.9784701 26.2448258,23.7082769 Z" id="Shape" fill="url(#linearGradient-2)"></path>
                <path d="M13.1369074,10.252489 L0.125619564,32.1795449 C-0.0360320776,32.4514752 -0.0391561844,32.7892791 0.117438457,33.0641526 C0.274033099,33.3390262 0.566208132,33.508599 0.88255796,33.5082134 L19.835007,33.4937188 C20.1449738,33.4935288 20.4319453,33.330157 20.5903349,33.0637134 L24.0931881,27.1660359 C24.2571775,26.8895024 24.2571775,26.5455168 24.0931881,26.2689834 L14.6523947,10.2540995 C14.494644,9.98552738 14.2065856,9.82044703 13.8951114,9.82011602 C13.5836372,9.81978502 13.2952286,9.98425276 13.1369074,10.252489 L13.1369074,10.252489 Z" id="Shape" fill="url(#linearGradient-3)"></path>
                <rect id="Rectangle-path" fill="#FFFFFF" x="113.985259" y="8.49220461" width="4.46271553" height="4.47398908" rx="2.23135776"></rect>
            </g>
        </g>
    </g>
</svg>