<?xml version="1.0" encoding="UTF-8" standalone="no"?>

<svg
  style="display: none;"
  xmlns:dc="http://purl.org/dc/elements/1.1/"
  xmlns:cc="http://creativecommons.org/ns#"
  xmlns:rdf="http://www.w3.org/1999/02/22-rdf-syntax-ns#"
  xmlns:svg="http://www.w3.org/2000/svg"
  xmlns="http://www.w3.org/2000/svg"
  xmlns:sodipodi="http://sodipodi.sourceforge.net/DTD/sodipodi-0.dtd"
  xmlns:inkscape="http://www.inkscape.org/namespaces/inkscape">
  <defs>
    <symbol id="github" viewBox="0 0 22 22" aira-labeledby="title">
      <g id="Page-1" stroke="none" stroke-width="1" fill="none" fill-rule="evenodd">
          <g id="denali-global-nav-r2" transform="translate(-1627.000000, -1086.000000)" fill="#FFFFFE">
              <g id="Navbar/Menu-Icons" transform="translate(1627.000000, 1068.000000)">
                  <path d="M10.9989871,18 C4.92550416,18 0,22.9248289 0,29.0003376 C0,33.8603395 3.15153934,37.9829338 7.52263728,39.4374904 C8.0729918,39.5387827 8.27355045,39.199116 8.27355045,38.9073943 C8.27355045,38.6460603 8.2640965,37.954572 8.25869425,37.0368642 C5.19899322,37.7013414 4.55342398,35.5620492 4.55342398,35.5620492 C4.0530403,34.2911692 3.33183953,33.9528531 3.33183953,33.9528531 C2.33309801,33.2708186 3.40747107,33.2843243 3.40747107,33.2843243 C4.51155652,33.3619816 5.09229872,34.4181221 5.09229872,34.4181221 C6.07348292,36.0988981 7.66714755,35.6133706 8.2938089,35.3317781 C8.39375058,34.6213819 8.67804414,34.1365297 8.99205009,33.86169 C6.54955646,33.5841493 3.98146045,32.6401056 3.98146045,28.4249977 C3.98146045,27.224347 4.41026428,26.2418122 5.11390773,25.4733417 C5.00046042,25.1951257 4.62297799,24.076184 5.22195279,22.5622026 C5.22195279,22.5622026 6.14506277,22.2664293 8.24653918,23.689923 C9.12373001,23.445471 10.0650726,23.3239203 11.0003376,23.3191933 C11.9349274,23.3239203 12.8755947,23.445471 13.7541361,23.689923 C15.8542619,22.2664293 16.7760214,22.5622026 16.7760214,22.5622026 C17.3763467,24.076184 16.9988643,25.1951257 16.8860923,25.4733417 C17.5910863,26.2418122 18.0165137,27.224347 18.0165137,28.4249977 C18.0165137,32.6509101 15.444366,33.5807729 12.9944443,33.8529114 C13.3888087,34.192578 13.7406305,34.863808 13.7406305,35.8895608 C13.7406305,37.3603241 13.7271248,38.5467939 13.7271248,38.9073943 C13.7271248,39.2018171 13.9256576,39.5441849 14.4834403,39.4368151 C18.8511618,37.9788821 22,33.8589889 22,29.0003376 C22,22.9248289 17.0744958,18 10.9989871,18" id="Fill-51">

                  </path>
              </g>
          </g>
      </g>
    </symbol>

    <symbol id="slack" viewBox="0 0 22 22" aira-labeledby="title">
      <path id="Path_2" data-name="Path 2" fill="#FFFFFE" d="M9.055,10.088,11.991,9.1l.95,2.835L10,12.923Zm0,0L11.991,9.1l.95,2.835L10,12.923Zm12.02-2.116C18.806.409,15.534-1.35,7.972.919S-1.35,6.459.919,14.022s5.54,9.322,13.1,7.053S23.344,15.534,21.075,7.972Zm-3.817,4.907-1.425.475.492,1.477a1.142,1.142,0,0,1-.721,1.442.982.982,0,0,1-.387.053,1.174,1.174,0,0,1-1.055-.774l-.492-1.477-2.937.985.492,1.477a1.142,1.142,0,0,1-.721,1.442.982.982,0,0,1-.387.053,1.174,1.174,0,0,1-1.055-.774L8.57,15.781l-1.425.475a.982.982,0,0,1-.387.053A1.174,1.174,0,0,1,5.7,15.534a1.142,1.142,0,0,1,.721-1.442l1.425-.475L6.9,10.786l-1.425.475a.982.982,0,0,1-.387.053,1.174,1.174,0,0,1-1.055-.774A1.142,1.142,0,0,1,4.753,9.1l1.425-.475L5.685,7.145a1.14,1.14,0,1,1,2.163-.721L8.341,7.9l2.937-.985-.492-1.477a1.14,1.14,0,1,1,2.163-.721L13.442,6.2l1.425-.475a1.14,1.14,0,1,1,.721,2.163l-1.425.475.95,2.832,1.425-.475a1.14,1.14,0,0,1,.721,2.163Z" transform="translate(0.003 0.003)"/>
    </symbol>
  <defs>
</svg>
